COVER ::
 
http://i.minus.com/ibvpoB3LFjabad.png


SCREEN ::
 
http://i.minus.com/ikRu1v7odvzMd.png
 
http://i.minus.com/iYzWYNrKHhsAi.png
 
http://i.minus.com/iMCbrh4fv5Vaf.png
 
http://i.minus.com/iCDc3t9ez8zBc.png
 
http://i.minus.com/ip94ovLLANOY5.png
 
http://i.minus.com/itpnC2jJjFybP.png
 
http://i.minus.com/iTLL19fAiyrnH.png
 
http://i.minus.com/ibvrNirnUv5JZg.png
 
http://i.minus.com/ibgAhIcFMjaEFP.png
 
http://i.minus.com/ibr8cBtJ94x0DD.png



General ::
Format                           : AVI
Format/Info                      : Audio Video Interleave
File size                        : 55.2 MiB
Duration                         : 3mn 20s
Overall bit rate                 : 2 307 Kbps


Video Info ::
ID                               : 0
Format                           : AVC
Format/Info                      : Advanced Video Codec
Format profile                   : High@L5.1
Format settings, CABAC           : Yes
Format settings, ReFrames        : 2 frames
Codec ID                         : H264
Duration                         : 10s 0ms
Bit rate                         : 1 975 Kbps
Width                            : 1 280 pixels
Height                           : 544 pixels
Display aspect ratio             : 2.35:1
Frame rate                       : 30.000 fps
Color space                      : YUV
Chroma subsampling               : 4:2:0
Bit depth                        : 8 bits
Scan type                        : Progressive
Bits/(Pixel*Frame)               : 0.095
Stream size                      : 47.2 MiB (86%)


Audio Info ::
ID                               : 1
Format                           : MPEG Audio
Format version                   : Version 1
Format profile                   : Layer 3
Codec ID                         : 55
Codec ID/Hint                    : MP3
Duration                         : 3mn 20s
Bit rate mode                    : Constant
Bit rate                         : 320 Kbps
Channel(s)                       : 2 channels
Sampling rate                    : 44.1 KHz
Compression mode                 : Lossy
Stream size                      : 7.65 MiB (14%)